<?xml version="1.0" encoding="UTF-8"?><svg id="Capa_2" xmlns="http://www.w3.org/2000/svg" viewBox="0 0 239.17 85.95" width='48' height='32'><defs><style>.cls-1{fill:#05be50;}</style></defs><g id="Capa_1-2"><g><g><path class="cls-1" d="M14.01,3.59h3.55l13.52,32.14h-4.4l-3.23-7.9H7.54l-3.28,7.9H0L14.01,3.59Zm1.71,4.9h-.09l-6.6,15.8h12.98l-6.29-15.8Z"/><path class="cls-1" d="M31.79,14.49h3.5v3.09h.09c.96-1.15,2.07-2.04,3.35-2.68,1.27-.64,2.67-.95,4.2-.95,1.65,0,3.15,.28,4.51,.84,1.36,.56,2.52,1.34,3.48,2.34,.96,1,1.71,2.18,2.25,3.54,.54,1.36,.81,2.85,.81,4.45s-.27,3.09-.81,4.45c-.54,1.36-1.28,2.54-2.22,3.54-.94,1-2.06,1.78-3.35,2.34-1.29,.56-2.66,.84-4.13,.84-1.89,0-3.54-.42-4.96-1.25-1.42-.83-2.46-1.85-3.12-3.06h-.09v14.12h-3.5V14.49Zm3.5,10.62c0,1.12,.17,2.16,.52,3.11,.34,.95,.85,1.79,1.5,2.5,.66,.71,1.44,1.27,2.36,1.68,.91,.41,1.94,.61,3.08,.61s2.16-.2,3.08-.61c.91-.41,1.7-.97,2.36-1.68,.66-.71,1.16-1.54,1.5-2.5,.34-.95,.52-1.99,.52-3.11s-.17-2.16-.52-3.11c-.34-.95-.85-1.79-1.5-2.5-.66-.71-1.44-1.27-2.36-1.68-.91-.41-1.94-.61-3.08-.61s-2.16,.2-3.08,.61c-.91,.41-1.7,.97-2.36,1.68-.66,.71-1.16,1.54-1.5,2.5-.34,.95-.52,1.99-.52,3.11Z"/><path class="cls-1" d="M56.71,19.53c0-.97-.03-1.88-.09-2.72-.06-.85-.09-1.62-.09-2.32h3.32c0,.58,.01,1.15,.04,1.73,.03,.58,.04,1.17,.04,1.77h.09c.24-.51,.58-1.01,1.01-1.5,.43-.48,.95-.91,1.55-1.29,.6-.38,1.27-.68,2.02-.91,.75-.23,1.56-.34,2.42-.34,.24,0,.48,.02,.72,.05,.24,.03,.48,.09,.72,.18l-.22,3.59c-.6-.18-1.23-.27-1.89-.27-2.16,0-3.72,.7-4.69,2.11-.97,1.41-1.46,3.34-1.46,5.79v10.35h-3.5V19.53Z"/><path class="cls-1" d="M87.78,31.88c-1.26,1.63-2.63,2.78-4.13,3.43-1.5,.65-3.23,.98-5.21,.98-1.65,0-3.13-.3-4.45-.89-1.32-.59-2.43-1.38-3.35-2.38-.91-1-1.62-2.18-2.11-3.54-.49-1.36-.74-2.81-.74-4.36,0-1.63,.27-3.14,.81-4.52,.54-1.38,1.29-2.56,2.25-3.54,.96-.98,2.09-1.75,3.41-2.29,1.32-.54,2.75-.82,4.31-.82,1.47,0,2.81,.25,4.04,.75,1.23,.5,2.28,1.23,3.17,2.18,.88,.95,1.56,2.12,2.04,3.5,.48,1.38,.72,2.94,.72,4.7v1.14h-16.97c.06,.91,.28,1.78,.65,2.61,.37,.83,.86,1.56,1.46,2.18,.6,.62,1.3,1.11,2.11,1.48,.81,.36,1.69,.54,2.65,.54,1.53,0,2.81-.27,3.86-.82,1.05-.54,1.99-1.35,2.83-2.41l2.65,2.09Zm-3.01-8.67c-.06-1.82-.64-3.27-1.75-4.36-1.11-1.09-2.63-1.63-4.58-1.63s-3.52,.54-4.71,1.63c-1.2,1.09-1.92,2.54-2.16,4.36h13.2Z"/><path class="cls-1" d="M91.28,19.53c0-.97-.03-1.88-.09-2.72-.06-.85-.09-1.62-.09-2.32h3.32c0,.58,.01,1.15,.04,1.73,.03,.58,.04,1.17,.04,1.77h.09c.24-.51,.58-1.01,1.01-1.5,.43-.48,.95-.91,1.55-1.29,.6-.38,1.27-.68,2.02-.91,.75-.23,1.56-.34,2.42-.34,1.38,0,2.57,.21,3.57,.64,1,.42,1.83,1.01,2.49,1.77,.66,.76,1.14,1.67,1.46,2.75,.31,1.07,.47,2.25,.47,3.52v13.12h-3.5v-12.76c0-1.79-.39-3.19-1.17-4.22-.78-1.03-1.99-1.54-3.64-1.54-1.14,0-2.12,.2-2.94,.59-.82,.39-1.5,.95-2.02,1.68-.52,.73-.91,1.59-1.17,2.59-.25,1-.38,2.1-.38,3.31v10.35h-3.5V19.53Z"/><path class="cls-1" d="M131.02,31.97h-.09c-.66,1.21-1.7,2.23-3.12,3.06-1.42,.83-3.08,1.25-4.96,1.25-1.47,0-2.84-.28-4.13-.84-1.29-.56-2.4-1.34-3.35-2.34-.94-1-1.68-2.18-2.22-3.54s-.81-2.84-.81-4.45,.27-3.09,.81-4.45c.54-1.36,1.29-2.54,2.25-3.54,.96-1,2.12-1.78,3.48-2.34,1.36-.56,2.87-.84,4.51-.84,1.53,0,2.93,.32,4.2,.95,1.27,.64,2.39,1.53,3.34,2.68h.09V1.41h3.5V35.73h-3.5v-3.77Zm0-6.86c0-1.12-.17-2.16-.52-3.11-.34-.95-.85-1.79-1.5-2.5-.66-.71-1.44-1.27-2.36-1.68-.91-.41-1.94-.61-3.08-.61s-2.16,.2-3.08,.61c-.91,.41-1.7,.97-2.36,1.68-.66,.71-1.16,1.54-1.5,2.5-.34,.95-.52,1.99-.52,3.11s.17,2.16,.52,3.11c.34,.95,.85,1.79,1.5,2.5,.66,.71,1.44,1.27,2.36,1.68,.91,.41,1.94,.61,3.08,.61s2.16-.2,3.08-.61c.91-.41,1.7-.97,2.36-1.68,.66-.71,1.16-1.54,1.5-2.5,.34-.95,.52-1.99,.52-3.11Z"/><path class="cls-1" d="M157.07,31.88c-1.26,1.63-2.63,2.78-4.13,3.43-1.5,.65-3.23,.98-5.21,.98-1.65,0-3.13-.3-4.45-.89-1.32-.59-2.43-1.38-3.34-2.38-.91-1-1.62-2.18-2.11-3.54-.49-1.36-.74-2.81-.74-4.36,0-1.63,.27-3.14,.81-4.52,.54-1.38,1.29-2.56,2.25-3.54,.96-.98,2.1-1.75,3.41-2.29,1.32-.54,2.75-.82,4.31-.82,1.47,0,2.81,.25,4.04,.75,1.23,.5,2.28,1.23,3.17,2.18,.88,.95,1.56,2.12,2.04,3.5,.48,1.38,.72,2.94,.72,4.7v1.14h-16.97c.06,.91,.28,1.78,.65,2.61,.37,.83,.86,1.56,1.46,2.18,.6,.62,1.3,1.11,2.11,1.48,.81,.36,1.69,.54,2.65,.54,1.53,0,2.81-.27,3.86-.82,1.05-.54,1.99-1.35,2.83-2.41l2.65,2.09Zm-3.01-8.67c-.06-1.82-.64-3.27-1.75-4.36-1.11-1.09-2.63-1.63-4.58-1.63s-3.52,.54-4.71,1.63c-1.2,1.09-1.92,2.54-2.16,4.36h13.2Z"/></g><g><path class="cls-1" d="M162.63,14.21h4.16v3.36h.1c.1-.3,.35-.68,.77-1.14,.41-.45,.94-.89,1.58-1.29,.64-.41,1.4-.76,2.28-1.04,.87-.29,1.84-.43,2.89-.43,1.75,0,3.22,.33,4.4,1,1.19,.67,2.16,1.67,2.92,3,.76-1.33,1.83-2.33,3.22-3,1.39-.67,2.79-1,4.21-1,1.81,0,3.3,.27,4.45,.82,1.15,.54,2.06,1.26,2.72,2.16,.66,.89,1.11,1.91,1.36,3.04,.25,1.14,.37,2.31,.37,3.52v12.53h-4.45v-11.99c0-.82-.06-1.6-.17-2.36-.12-.76-.35-1.42-.72-2-.36-.57-.87-1.04-1.53-1.38-.66-.35-1.53-.52-2.62-.52-2.15,0-3.68,.61-4.6,1.82-.92,1.21-1.39,2.77-1.39,4.68v11.76h-4.45v-11.26c0-1.03-.06-1.97-.17-2.81-.12-.85-.35-1.58-.69-2.2-.35-.62-.84-1.1-1.48-1.45-.64-.35-1.51-.52-2.6-.52-.79,0-1.56,.14-2.3,.43-.74,.29-1.39,.72-1.95,1.29-.56,.58-1.01,1.31-1.34,2.2-.33,.89-.49,1.95-.49,3.15v11.17h-4.45V14.21Z"/><path class="cls-1" d="M201.76,16.85c1.2-1.06,2.58-1.85,4.16-2.38,1.57-.53,3.15-.79,4.72-.79s3.05,.2,4.23,.59c1.18,.39,2.15,.92,2.9,1.59,.76,.67,1.31,1.43,1.68,2.29,.36,.86,.54,1.76,.54,2.7v10.99c0,.76,.02,1.45,.05,2.09,.03,.64,.08,1.24,.14,1.82h-3.78c-.09-1.09-.14-2.18-.14-3.27h-.09c-.94,1.39-2.06,2.38-3.35,2.95-1.29,.57-2.79,.86-4.49,.86-1.04,0-2.03-.14-2.97-.41-.94-.27-1.77-.68-2.48-1.23-.71-.54-1.27-1.22-1.68-2.02-.41-.8-.61-1.73-.61-2.79,0-1.39,.32-2.56,.97-3.5,.64-.94,1.53-1.7,2.64-2.29,1.12-.59,2.42-1.01,3.92-1.27,1.49-.26,3.09-.39,4.79-.39h3.12v-.91c0-.54-.11-1.09-.33-1.63-.22-.54-.55-1.04-.99-1.48-.44-.44-.99-.79-1.65-1.04-.66-.26-1.45-.39-2.36-.39-.82,0-1.53,.08-2.15,.23-.61,.15-1.17,.34-1.68,.57-.5,.23-.96,.49-1.37,.79-.41,.3-.8,.59-1.18,.86l-2.55-2.54Zm11.99,8.54c-1.01,0-2.04,.05-3.09,.16-1.06,.11-2.01,.31-2.88,.61-.87,.3-1.57,.73-2.12,1.27-.55,.54-.83,1.24-.83,2.09,0,1.24,.43,2.13,1.3,2.68,.87,.54,2.04,.82,3.52,.82,1.16,0,2.16-.19,2.97-.57,.82-.38,1.48-.87,1.98-1.48,.5-.6,.87-1.28,1.09-2.02,.22-.74,.33-1.48,.33-2.2v-1.36h-2.27Z"/><path class="cls-1" d="M235.44,19.62c-.48-.6-1.07-1.11-1.77-1.52-.7-.41-1.56-.61-2.58-.61-.96,0-1.79,.2-2.49,.61-.7,.41-1.06,1.01-1.06,1.79,0,.64,.2,1.15,.61,1.54,.4,.39,.88,.71,1.44,.95,.55,.24,1.15,.42,1.77,.54,.63,.12,1.17,.23,1.62,.32,.87,.21,1.68,.47,2.45,.77,.76,.3,1.42,.7,1.98,1.18,.55,.48,.99,1.07,1.3,1.77,.31,.7,.47,1.54,.47,2.54,0,1.21-.25,2.25-.76,3.11-.51,.86-1.17,1.57-1.98,2.11-.81,.54-1.73,.94-2.76,1.18-1.03,.24-2.07,.36-3.12,.36-1.77,0-3.32-.27-4.65-.82-1.33-.54-2.52-1.54-3.57-3l3.05-2.54c.66,.67,1.39,1.26,2.2,1.77,.81,.52,1.8,.77,2.96,.77,.51,0,1.02-.05,1.55-.16,.52-.11,.99-.27,1.39-.5,.4-.23,.73-.51,.99-.86,.25-.35,.38-.75,.38-1.2,0-.6-.19-1.1-.56-1.5-.37-.39-.82-.7-1.35-.93-.52-.23-1.08-.41-1.66-.54-.58-.14-1.1-.25-1.55-.34-.87-.21-1.69-.45-2.47-.73-.78-.27-1.47-.64-2.07-1.09-.6-.45-1.08-1.03-1.44-1.73s-.54-1.56-.54-2.59c0-1.12,.23-2.1,.7-2.93,.46-.83,1.08-1.52,1.84-2.07,.76-.54,1.63-.95,2.6-1.23,.97-.27,1.95-.41,2.94-.41,1.44,0,2.81,.27,4.13,.82,1.32,.54,2.36,1.45,3.14,2.72l-3.14,2.41Z"/></g><path class="cls-1" d="M216.08,3.48h-4.63c-.76,0-1.38,.62-1.38,1.38s.62,1.38,1.38,1.38h2.54l-3.68,3.68c-.54,.54-.54,1.41,0,1.95,.27,.27,.62,.4,.97,.4s.7-.13,.97-.4l3.68-3.68v2.54c0,.76,.62,1.38,1.38,1.38s1.38-.62,1.38-1.38V6.21c-1.28-.38-2.28-1.42-2.61-2.72Z"/><circle class="cls-1" cx="219.77" cy="2.56" r="2.56"/><g><path class="cls-1" d="M231.48,71.56l-.1-.12,.1-.12c1.83-2.35,5.79-6.92,7.28-8.29h-2.3c-1.45,0-2.45,.15-3.5,1.14-2.09,2.02-3.82,4.38-5.58,6.72l-.34,.45,.04-13.43h-4.22l-.04,23.28,4.2,.02,.02-9.45,.34,.46c1.99,2.73,4.02,5.48,6.34,7.92,.74,.75,1.89,1.23,2.85,1.22,1.15,0,1.81-.3,2.27-.86-1.16-1.42-5.93-7.16-7.35-8.94"/><path class="cls-1" d="M148.05,62.43c-5.12,0-8.76,3.76-8.78,9.89,0,5.58,4.33,9.06,8.78,9.07,2.64,0,4.29-.41,5.25-1.21v-3.1c-1.36,.68-2.97,.9-4.4,.9-2.74,0-4.94-1.54-5.3-4l-.03-.22h3.2c3.01,.01,5.13-.26,6.47-.94,1.33-.68,1.92-1.7,1.93-3.37,0-4.33-3.41-7.02-7.12-7.03m2.07,8.03c-.83,.3-2.16,.41-4.32,.41h-2.23v-.2l.04-.62c.11-2.21,1.71-4.14,4.03-4.14,1.08,0,1.98,.25,2.63,.74,.65,.5,1.02,1.27,1.01,2.24,.02,.71-.32,1.28-1.16,1.57m7.25-.95l-.02,11.58h4.2l.02-10.74c0-1.44,.29-2.48,.86-3.17,.58-.69,1.44-.99,2.48-.98,.43,0,.8,.04,1.14,.1v-3.41c-.52-.27-1.21-.45-2.12-.45-4.7,0-6.55,3.41-6.57,7.07m-55.25,11.47h4.19l.04-23.31h-4.19l-.04,23.31Zm15.53-18.62c-5.59,0-8.04,3.91-8.06,7.76l-.02,10.88h4.17l.02-10.55c0-1.36,.35-2.45,.97-3.2,.62-.75,1.51-1.16,2.54-1.15,1.2,0,2.19,.36,2.86,1.15,.67,.79,1.01,1.97,1.01,3.56v10.22h4.15l.02-10.62c0-5.18-3.44-8.01-7.66-8.03m15.05-4.64h-4.15l-.02,16.82c.01,4.27,2.11,6.79,6.65,6.82,1.93,0,3.09-.64,3.56-1.66v-2.65c-.74,.34-1.76,.49-3.01,.48-.94,0-1.73-.25-2.26-.83-.53-.59-.8-1.47-.8-2.71v-7.88h3.65c1.78,0,2.52-1.15,2.53-2.01v-1.7h-6.16v-4.69Zm79.22,4.82c-5.6,0-8.05,3.91-8.07,7.76v10.88h4.15l.02-10.55c0-1.36,.35-2.45,.97-3.21,.62-.75,1.51-1.16,2.54-1.15,1.2,0,2.19,.36,2.86,1.15,.67,.79,1.01,1.97,1.01,3.56v10.22h4.15l.02-10.62c0-5.18-3.44-8.01-7.66-8.03m-34.76-.07c-2.35,0-3.82,1.42-4.7,2.74l-.34,.5,.03-7.92h-4.14l-.03,14.44c-.01,6.14,3.59,9.19,8.28,9.2,5.34,.01,8.72-4.29,8.74-9.79,0-5.4-3.4-9.16-7.84-9.17m-.43,15.34h0c-1.36,0-2.59-.42-3.4-1.44-.81-1.03-1.19-2.63-1.19-4.79,.01-2.96,1.76-5.39,4.15-5.39,1.39,0,2.53,.4,3.3,1.4,.77,1,1.16,2.55,1.15,4.83,0,3.06-1.65,5.38-4.01,5.38m16.84-15.3c-2.54,0-4.2,.69-5.37,1.62v3c1.18-.57,2.66-1.04,4.68-1.04,1.37,0,2.56,.2,3.26,.77,.71,.57,1.02,1.5,1.02,2.83v.43h-1.78c-6.68,.01-8.89,2.43-8.91,5.62,0,3.29,2.85,5.71,7.12,5.72h.92c3.98,0,6.72-2.62,6.74-6.45v-4.28c.02-6.52-3.67-8.2-7.68-8.23m-2.83,13.07c0-.8,.28-1.48,1.02-1.91,.73-.42,1.87-.62,3.61-.62h1.81v1.99c0,.98-.25,1.75-.78,2.28-.53,.52-1.31,.77-2.32,.77h0c-1.02,0-1.85-.22-2.43-.66-.58-.42-.91-1.07-.9-1.85"/></g><path class="cls-1" d="M64.17,52.6c-2.4,0-4.34,1.99-4.35,4.46l-.05,28.83,28.19,.05c2.4,0,4.35-1.99,4.35-4.46l.06-28.83-28.2-.05Zm20.55,24.07l-17.35,3.17,.03-17.91,17.35-3.18-.03,17.92Z"/></g></g></svg>