<?xml version="1.0" encoding="UTF-8"?>
<svg id="Capa_2" xmlns="http://www.w3.org/2000/svg" viewBox="0 0 169.76 104.95" height="32" width="32"> 
    <defs>
        <style>
            .cls-1 {
                fill: #05be50;
            }
        </style>
    </defs>
    <g id="VERDE">
        <g>
            <circle class="cls-1" cx="67.12" cy="22.12" r="22.12" transform="translate(34.54 84.83) rotate(-80.78)" />
            <g>
                <g>
                    <path class="cls-1" d="M13.05,102.95c-6.09,0-11.05-4.96-11.05-11.05C2,54.21,26.75,20.66,62.19,10.3l1.77-.52,7.94,20.78-2.15,.57c-26.88,7.16-45.66,32.15-45.66,60.77,0,6.09-4.96,11.05-11.05,11.05Z" />
                    <path
                        class="cls-1"
                        d="M62.76,12.21l6.48,16.98c-27.06,7.2-47.15,32.54-47.15,62.71,0,5-4.05,9.05-9.05,9.05s-9.05-4.05-9.05-9.05C4,54.05,28.89,22.11,62.76,12.21m2.42-4.87l-3.54,1.04c-17.4,5.09-33.08,16.03-44.16,30.8C6.04,54.44,0,72.67,0,91.9c0,7.19,5.85,13.05,13.05,13.05s13.05-5.85,13.05-13.05c0-27.72,18.17-51.92,44.18-58.84l4.29-1.14-1.58-4.15-6.48-16.98-1.32-3.45h0Z"
                    />
                </g>
                <path
                    class="cls-1"
                    d="M84.88,8.98c44.6,0,80.88,37.13,80.88,82.78,0,5-4.05,9.05-9.05,9.05s-9.05-4.05-9.05-9.05c0-35.67-28.17-64.68-62.79-64.68-5.41,0-10.63,.78-15.64,2.12l-6.48-16.98c7.04-2.06,14.44-3.23,22.12-3.23m0-4c-7.72,0-15.54,1.14-23.24,3.39l-4.16,1.22,1.55,4.05,6.48,16.98,1.29,3.36,3.48-.93c4.94-1.32,9.86-1.98,14.61-1.98,32.41,0,58.79,27.22,58.79,60.68,0,7.19,5.85,13.05,13.05,13.05s13.05-5.85,13.05-13.05c0-47.85-38.08-86.78-84.88-86.78h0Z"
                />
            </g>
        </g>
    </g>
</svg>
