<?xml version="1.0" encoding="utf-8"?>
<!-- Generator: Adobe Illustrator 27.2.0, SVG Export Plug-In . SVG Version: 6.00 Build 0)  -->
<svg version="1.1" id="Layer_1" xmlns="http://www.w3.org/2000/svg" xmlns:xlink="http://www.w3.org/1999/xlink" x="0px" y="0px"
	 viewBox="0 0 32 32" style="enable-background:new 0 0 32 32;" xml:space="preserve">
<style type="text/css">
	.st0{clip-path:url(#SVGID_00000096059699310666686010000010372374103569945535_);}
	.st1{fill-rule:evenodd;clip-rule:evenodd;fill:#05BE50;}
</style>
<g>
	<defs>
		<rect id="SVGID_1_" x="-1.8" y="-1.8" width="35.5" height="35.5"/>
	</defs>
	<clipPath id="SVGID_00000039855931238952829530000016160020315242050461_">
		<use xlink:href="#SVGID_1_"  style="overflow:visible;"/>
	</clipPath>
	<g style="clip-path:url(#SVGID_00000039855931238952829530000016160020315242050461_);">
		<path class="st1" d="M17.5,18.4c0.1,0,0.1,0,0.2,0c0.3,0.1,0.6,0.3,0.8,0.6l5.3,10.5l1.1-0.6l-3-14.5c-0.1-0.4,0-0.8,0.3-1
			c2-1.9,5.6-5.6,5.6-5.6c1-1,1.7-2.3,1.7-3.3c0-0.5-0.2-0.9-0.3-1.1C28.9,3,28.5,2.9,28,2.9c-1,0-2.3,0.7-3.3,1.7
			c-0.4,0.4-3.8,3.7-5.6,5.6c-0.3,0.3-0.7,0.4-1,0.3l-14.5-3L2.9,8.7l10.7,5.2c0.3,0.2,0.5,0.4,0.6,0.8c0.1,0.3,0,0.7-0.2,0.9
			l-6.1,7.2c-0.3,0.3-0.7,0.5-1.2,0.3c-0.8-0.2-1.4-0.4-1.9-0.4H4.7c-0.2,0-0.4,0-0.5,0.1c-0.1,0-0.2,0-0.2,0.4c0,0.2,0,0.3,0.2,0.6
			l4.4,4.4c0.2,0.2,0.4,0.2,0.6,0.2c0.4,0,0.4-0.1,0.5-0.3h0c0,0,0-0.1,0-0.4c0-0.4-0.2-1.3-0.4-2c-0.1-0.4,0-0.9,0.3-1.2l7-6
			C17,18.5,17.2,18.4,17.5,18.4z M23.8,31.7c-0.8,0-1.6-0.5-2-1.2l-4.6-9.2l-5.4,4.7c0.2,0.6,0.3,1.4,0.3,1.9c0,0.5-0.1,0.9-0.2,1.2
			c-0.2,0.5-0.6,1.6-2.4,1.7c-0.9,0.1-1.7-0.3-2.3-0.9l-4.4-4.4c-0.1-0.1-0.2-0.2-0.3-0.3c-0.5-0.7-0.6-1.2-0.6-2
			c0.1-1.3,0.8-2.2,1.9-2.5c0.2-0.1,0.5-0.1,1-0.1h0.1c0.6,0,1.2,0.1,1.8,0.3l4.7-5.5l-9.4-4.6C1.4,10.4,1,9.9,0.8,9.4
			C0.6,8.8,0.6,8.2,0.9,7.7l0.6-1.1c0.4-0.9,1.4-1.4,2.4-1.2l14,2.8c1.9-2,4.9-4.9,5.3-5.2c1.4-1.4,3.3-2.3,4.9-2.3
			c1.2,0,2.2,0.4,2.9,1.2c0.5,0.6,0.9,1.6,0.9,2.6c0,1.6-0.9,3.5-2.3,4.9c0,0-3.1,3.2-5.2,5.2L27,28.5c0.2,1-0.3,2-1.2,2.4l-1.1,0.6
			C24.4,31.7,24.1,31.7,23.8,31.7z"/>
	</g>
</g>
</svg>
