<svg width="32" height="32" viewBox="0 0 32 32" fill="none" xmlns="http://www.w3.org/2000/svg">
<g clip-path="url(#clip0_124_884)">
<path d="M19.88 16.1878C19.88 15.4141 19.8788 14.6404 19.88 13.8678C19.8811 13.3158 20.2217 13.0004 20.8023 13.0084C21.016 13.0107 21.2286 13.0164 21.4343 13.0736C21.9143 13.2073 22.3806 13.157 22.8389 12.9924C23.3371 12.8141 23.8468 12.797 24.3611 12.9044C25.1886 13.0781 25.6869 13.6141 25.7006 14.4232C25.7234 15.8472 25.7143 17.2735 25.7109 18.6974C25.7097 19.0003 25.457 19.23 25.1256 19.2471C24.9507 19.2563 24.7771 19.2506 24.6023 19.2494C24.1657 19.246 23.9223 19.0209 23.9223 18.6117C23.9189 17.5877 23.9246 16.5638 23.92 15.5398C23.9188 15.1741 23.8903 14.8095 23.7326 14.4667C23.5097 13.9844 23.0628 13.7833 22.5234 13.917C22.1851 14.0004 21.9771 14.2107 21.8743 14.5192C21.7451 14.9135 21.7108 15.3192 21.7097 15.7284C21.7063 16.6666 21.7074 17.6037 21.7086 18.542C21.7086 19.0003 21.4547 19.2448 20.9679 19.2471C20.8467 19.2483 20.7257 19.2483 20.6046 19.2471C20.1451 19.2426 19.8811 18.9991 19.88 18.5683C19.8777 17.7775 19.88 16.982 19.88 16.1878ZM14.0503 15.8986C14.0503 16.7295 14.0457 17.5592 14.0537 18.39C14.0571 18.7889 14.3086 19.102 14.6903 19.2186C15.056 19.3306 15.448 19.2197 15.6948 18.9363C15.864 18.7409 15.9017 18.5123 15.9017 18.2712C15.9017 16.0015 15.9017 13.733 15.9006 11.4644C15.9006 11.3787 15.8948 11.293 15.8811 11.2073C15.8286 10.8816 15.6284 10.6576 15.313 10.5353C14.6902 10.2976 14.056 10.725 14.0537 11.3879C14.048 12.5479 14.0514 13.7078 14.0514 14.8667C14.0503 15.2107 14.0491 15.5546 14.0503 15.8986ZM18.7966 16.0975C18.7966 15.3249 18.8046 14.5512 18.7943 13.7787C18.7874 13.2827 18.392 12.9273 17.8788 12.9296C17.3806 12.9318 16.976 13.2907 16.9726 13.7695C16.9646 15.3158 16.9657 16.8609 16.9714 18.4072C16.9726 18.774 17.232 19.0894 17.5908 19.2037C18.1748 19.3911 18.7806 19.0049 18.792 18.4163C18.8068 17.6437 18.7954 16.87 18.7966 16.0975ZM18.9063 11.2382C18.8983 10.7147 18.4366 10.2862 17.8823 10.2862C17.3188 10.2862 16.8617 10.7273 16.8674 11.2645C16.8731 11.7959 17.3211 12.2107 17.888 12.2107C18.4571 12.2096 18.9154 11.7719 18.9063 11.2382ZM12.8868 17.2529C12.6206 18.3477 11.864 18.9523 10.7486 19.2151C10.176 19.35 9.60455 19.318 9.03422 19.2003C8.94622 19.182 8.85707 19.1637 8.76678 19.1488C8.37478 19.0871 8.05138 19.326 8.03995 19.7008C8.02623 20.1374 8.02966 20.574 8.02623 21.0105C8.0228 21.4871 7.78964 21.7111 7.29364 21.7134C7.19535 21.7134 7.09707 21.7134 6.99764 21.7134C6.52564 21.7111 6.28795 21.4894 6.2868 21.0368C6.28337 19.8048 6.28565 18.574 6.28565 17.3409C6.28565 16.2083 6.28451 15.0781 6.28565 13.9455C6.28565 13.8313 6.28679 13.717 6.29479 13.6027C6.31536 13.2815 6.52565 13.0736 6.86622 13.037C7.11765 13.0107 7.36907 13.037 7.61364 13.0861C8.03192 13.1707 8.4331 13.1547 8.84453 13.0256C9.50741 12.8176 10.1886 12.8016 10.8674 12.9513C11.88 13.173 12.5406 13.7615 12.8297 14.7021C13.0891 15.5455 13.096 16.3946 12.8868 17.2529ZM11.2697 16.1443C11.2697 15.6255 11.1337 15.0449 10.8868 14.5889C10.68 14.2061 10.3588 13.9444 9.91313 13.8404C9.25484 13.6873 8.61707 14.0107 8.26392 14.6678C8.06392 15.0404 7.98621 15.4381 7.96335 15.8495C7.92792 16.4963 8.0068 17.1249 8.37138 17.6906C8.68223 18.174 9.15655 18.4049 9.74627 18.3797C10.3337 18.3546 10.728 18.0529 10.9531 17.5397C11.1486 17.0906 11.2663 16.6289 11.2697 16.1443ZM20.0023 31.5074C27.0457 29.6709 31.9794 23.383 32 16.2118C31.9931 13.5033 31.4411 11.093 30.312 8.83935C27.1143 2.46577 19.9874 -1.05642 12.9771 0.281832C8.61938 1.10924 4.90281 3.6406 2.50967 7.40624C0.117667 11.1719 -0.595488 15.6164 0.503942 19.918C0.585085 20.2357 0.673062 20.5511 0.762204 20.8665L0.812502 21.0494C1.02393 21.7945 1.22279 22.5008 1.32907 23.2002C1.45936 24.0516 1.53023 24.9487 1.17823 25.7453C0.946228 26.2641 0.829645 26.8355 0.83193 27.4401C0.836502 28.7772 1.43765 29.9738 2.61593 30.9954C3.39193 31.6709 4.39421 31.9806 5.51992 31.8731C6.17707 31.8114 6.75993 31.6332 7.30051 31.456C8.25022 31.1452 9.28913 31.056 10.472 31.1829C10.9531 31.2343 11.456 31.3554 12.0171 31.4914L12.6571 31.6412C13.736 31.8823 14.848 32 16.0548 32C17.4228 32 18.7508 31.8343 20.0023 31.5074ZM6.58737 29.2846C6.15309 29.4275 5.7268 29.5589 5.3108 29.5978C4.64566 29.6526 4.30967 29.4401 4.11538 29.2721C3.22395 28.4984 3.11879 27.8515 3.11765 27.4321C3.1165 27.1532 3.16565 26.8984 3.26622 26.6744C3.85936 25.3361 3.76221 23.9933 3.58964 22.8573C3.46163 22.0162 3.24337 21.2448 3.00566 20.406L2.96223 20.2517C2.8788 19.9523 2.79535 19.6551 2.71763 19.3546C1.77592 15.6678 2.38736 11.861 4.43879 8.6325C6.48908 5.40399 9.67198 3.23604 13.4034 2.52749C19.416 1.3778 25.5269 4.39944 28.2697 9.86448C29.2354 11.7936 29.7086 13.8735 29.7154 16.2152C29.6983 22.3419 25.4673 27.7201 19.4262 29.2961C17.425 29.8195 15.1027 29.8458 13.1553 29.4126L12.5257 29.2641C11.9451 29.1235 11.3451 28.9784 10.7166 28.9109C10.2857 28.8641 9.86855 28.8412 9.46284 28.8412C8.43994 28.8412 7.49138 28.9875 6.58737 29.2846Z" fill="#05BE50"/>
</g>
<defs>
<clipPath id="clip0_124_884">
<rect width="32" height="32" fill="white"/>
</clipPath>
</defs>
</svg>
